<?xml version="1.0" encoding="utf-8"?>
<svg xmlns="http://www.w3.org/2000/svg" viewBox="0 0 2536 500">
  <style>
.w { fill:#fff; }
.k { fill:#1d1d1f; }
@media (prefers-color-scheme: dark) {
  .w, .k { fill:#0b0f14; }
}
</style>
  <defs>
    <linearGradient id="g" x1="0%" y1="0%" x2="100%" y2="100%">
      <stop offset="0" stop-color="#34E89E"/>
      <stop offset="0.5" stop-color="#14A073"/>
      <stop offset="1" stop-color="#00916F"/>
    </linearGradient>
    <linearGradient id="b" x1="0%" y1="0%" x2="500%" y2="50%">
      <stop offset="0" stop-color="#2B579A"/>
      <stop offset="0.5" stop-color="#00A4EF"/>
      <stop offset="1" stop-color="#00BCF2"/>
    </linearGradient>
  </defs>
  <path d="M 53.773 15.094 L 346.533 15.094 L 0 361.627 L 0 68.867 C 0 39.168 24.074 15.094 53.773 15.094 Z" fill="url(#g)"/>
  <path d="M 379.044 43.645 L 379.044 339.749 C 379.044 369.789 354.695 394.138 324.655 394.138 L 28.551 394.138 L 379.044 43.645 Z" fill="url(#b)"/>
  <polygon class="w" points="0 394.138 27.291 394.138 379.044 42.385 379.044 15.094"/>
  <path class="k" d="M 2530.02 179.168 L 2479.82 188.125 C 2477.74 181.667 2474.44 175.556 2469.93 169.793 C 2465.49 163.957 2459.41 159.203 2451.71 155.52 C 2444.07 151.84 2434.52 150 2423.07 150 C 2407.45 150 2394.4 153.473 2383.92 160.418 C 2373.43 167.359 2368.19 176.32 2368.19 187.293 C 2368.19 196.806 2371.7 204.48 2378.71 210.313 C 2385.72 216.078 2397.07 220.797 2412.76 224.48 L 2457.85 234.895 C 2484.02 240.936 2503.5 250.242 2516.27 262.812 C 2529.11 275.383 2535.54 291.702 2535.54 311.77 C 2535.54 328.783 2530.64 343.923 2520.85 357.188 C 2511.06 370.452 2497.42 380.833 2479.93 388.332 C 2462.5 395.903 2442.34 399.688 2419.43 399.688 C 2387.63 399.688 2361.67 392.882 2341.54 379.27 C 2321.47 365.59 2309.15 346.181 2304.57 321.043 L 2357.99 312.918 C 2361.32 326.875 2368.16 337.395 2378.5 344.48 C 2388.92 351.563 2402.42 355.104 2419.01 355.105 C 2437.13 355.105 2451.6 351.32 2462.43 343.75 C 2473.33 336.11 2478.78 326.804 2478.78 315.832 C 2478.78 307.016 2475.48 299.582 2468.89 293.543 C 2462.3 287.5 2452.19 282.917 2438.59 279.793 L 2390.58 269.27 C 2364.06 263.229 2344.48 253.611 2331.85 240.418 C 2319.21 227.223 2312.9 210.521 2312.9 190.312 C 2312.9 173.507 2317.59 158.82 2326.96 146.25 C 2336.33 133.68 2349.28 123.853 2365.8 116.77 C 2382.32 109.687 2401.24 106.146 2422.55 106.145 C 2453.23 106.145 2477.39 112.778 2495.03 126.043 C 2512.66 139.306 2524.32 157.015 2530.02 179.168" style="stroke:none;fill-rule:nonzero;fill-opacity:1"/>
  <path class="k" d="M 2057.15 500.418 C 2048.89 500.418 2041.39 499.793 2034.66 498.543 C 2027.86 497.223 2022.79 495.832 2019.45 494.375 L 2032.78 449.063 C 2042.92 451.77 2051.91 452.953 2059.75 452.605 C 2067.67 452.187 2074.68 449.203 2080.79 443.645 C 2086.9 438.09 2092.28 429.027 2096.93 416.457 L 2103.8 397.605 L 1999.88 109.793 L 2059.02 109.793 L 2130.98 330.313 L 2133.9 330.313 L 2205.85 109.793 L 2265.21 109.793 L 2148.16 431.875 C 2142.75 446.668 2135.84 459.203 2127.44 469.48 C 2119.04 479.758 2109.08 487.5 2097.55 492.707 C 2085.96 497.847 2072.49 500.417 2057.15 500.418" style="stroke:none;fill-rule:nonzero;fill-opacity:1"/>
  <path class="k" d="M 1956.04 179.168 L 1905.95 188.125 C 1903.87 181.667 1900.57 175.556 1896.06 169.793 C 1891.54 163.957 1885.47 159.203 1877.83 155.52 C 1870.2 151.84 1860.65 150 1849.2 150 C 1833.51 150 1820.42 153.473 1809.94 160.418 C 1799.52 167.359 1794.32 176.32 1794.32 187.293 C 1794.32 196.806 1797.83 204.48 1804.84 210.313 C 1811.85 216.078 1823.17 220.797 1838.79 224.48 L 1883.98 234.895 C 1910.08 240.936 1929.55 250.242 1942.39 262.812 C 1955.17 275.383 1961.55 291.702 1961.55 311.77 C 1961.55 328.783 1956.66 343.923 1946.87 357.188 C 1937.09 370.453 1923.48 380.832 1906.05 388.332 C 1888.63 395.903 1868.43 399.688 1845.45 399.688 C 1813.65 399.688 1787.72 392.882 1767.66 379.27 C 1747.53 365.59 1735.21 346.181 1730.7 321.043 L 1784.11 312.918 C 1787.45 326.875 1794.29 337.395 1804.63 344.48 C 1814.97 351.563 1828.48 355.104 1845.14 355.105 C 1863.26 355.105 1877.73 351.32 1888.56 343.75 C 1899.39 336.11 1904.8 326.804 1904.81 315.832 C 1904.81 307.016 1901.51 299.582 1894.91 293.543 C 1888.32 287.5 1878.25 282.917 1864.71 279.793 L 1816.6 269.27 C 1790.15 263.229 1770.61 253.611 1757.98 240.418 C 1745.34 227.223 1739.02 210.521 1739.02 190.312 C 1739.03 173.507 1743.71 158.82 1753.08 146.25 C 1762.46 133.68 1775.37 123.853 1791.82 116.77 C 1808.34 109.688 1827.29 106.145 1848.68 106.145 C 1879.36 106.145 1903.52 112.778 1921.15 126.043 C 1938.79 139.306 1950.41 157.015 1956.04 179.168" style="stroke:none;fill-rule:nonzero;fill-opacity:1"/>
  <path class="k" d="M 1541.49 355.832 C 1556.83 355.832 1569.95 352.811 1580.85 346.77 C 1591.75 340.73 1600.04 332.813 1605.74 323.02 C 1611.5 313.229 1614.38 302.708 1614.38 291.457 L 1614.38 254.895 C 1612.43 256.84 1608.65 258.645 1603.03 260.312 C 1597.4 261.979 1591.02 263.403 1583.87 264.582 C 1576.91 265.735 1569.93 266.777 1562.94 267.707 C 1556.2 268.61 1550.54 269.374 1545.96 270 C 1535.27 271.39 1525.52 273.68 1516.7 276.875 C 1507.88 280.069 1500.84 284.652 1495.56 290.625 C 1490.36 296.598 1487.75 304.515 1487.76 314.375 C 1487.75 328.055 1492.79 338.403 1502.85 345.418 C 1512.99 352.36 1525.86 355.831 1541.49 355.832 M 1529.51 400.207 C 1511.53 400.207 1495.25 396.84 1480.67 390.105 C 1466.16 383.438 1454.67 373.68 1446.2 360.832 C 1437.74 347.984 1433.5 332.258 1433.5 313.645 C 1433.5 297.605 1436.59 284.411 1442.77 274.063 C 1448.95 263.714 1457.28 255.52 1467.76 249.48 C 1478.24 243.439 1489.94 238.889 1502.85 235.832 C 1515.89 232.698 1529.1 230.333 1542.42 228.75 C 1559.43 226.804 1573.25 225.172 1583.87 223.855 C 1594.49 222.536 1602.2 220.417 1606.99 217.5 C 1611.77 214.515 1614.17 209.689 1614.17 203.02 L 1614.17 201.77 C 1614.17 185.59 1609.66 173.056 1600.63 164.168 C 1591.54 155.348 1578.07 150.938 1560.23 150.938 C 1541.63 150.938 1526.98 155.035 1516.29 163.23 C 1505.59 171.423 1498.24 180.519 1494.21 190.52 L 1442.25 178.645 C 1448.43 161.354 1457.45 147.396 1469.32 136.77 C 1481.19 126.078 1494.9 118.297 1510.45 113.437 C 1526 108.577 1542.35 106.146 1559.5 106.145 C 1570.82 106.145 1582.86 107.465 1595.63 110.105 C 1608.34 112.743 1620.28 117.604 1631.46 124.687 C 1642.63 131.703 1651.8 141.703 1658.95 154.687 C 1666.1 167.672 1669.67 184.547 1669.67 205.312 L 1669.67 393.957 L 1615.63 393.957 L 1615.63 355.105 L 1613.44 355.105 C 1609.9 362.258 1604.56 369.27 1597.4 376.145 C 1590.25 383.09 1581.06 388.819 1569.81 393.332 C 1558.56 397.918 1545.13 400.207 1529.51 400.207" style="display:inline;fill-opacity:1;fill-rule:nonzero;stroke:none;opacity:1"/>
  <path class="k" d="M 1394.87 109.793 L 1291.88 393.957 L 1232.73 393.957 L 1129.54 109.793 L 1188.89 109.793 L 1260.85 328.438 L 1263.76 328.438 L 1335.51 109.793 L 1394.87 109.793 Z" style="stroke:none;fill-rule:nonzero;fill-opacity:1"/>
  <path class="k" d="M 1050.29 66.043 C 1040.64 66.042 1032.41 62.778 1025.61 56.25 C 1018.74 49.792 1015.3 42.084 1015.3 33.125 C 1015.3 23.957 1018.74 16.145 1025.61 9.688 C 1032.41 3.229 1040.64 0 1050.29 0 C 1059.87 0 1068.1 3.229 1074.97 9.688 C 1081.78 16.145 1085.18 23.957 1085.18 33.125 C 1085.18 42.084 1081.78 49.792 1074.97 56.25 C 1068.1 62.778 1059.87 66.042 1050.29 66.043" style="stroke:none;fill-rule:nonzero;fill-opacity:1"/>
  <path class="k" d="M 1022.38 393.957 L 1022.38 109.793 L 1077.57 109.793 L 1077.57 393.957 L 1022.38 393.957 Z" style="stroke:none;fill-rule:nonzero;fill-opacity:1"/>
  <path class="k" d="M 822.238 393.957 L 822.238 109.793 L 875.761 109.793 L 875.761 155 L 878.676 155 C 883.883 139.723 893.046 127.672 906.168 118.855 C 919.288 110.035 934.143 105.625 950.736 105.625 C 954.206 105.625 958.336 105.73 963.126 105.938 C 967.846 106.215 971.556 106.528 974.266 106.875 L 974.266 159.793 C 972.046 159.167 968.086 158.438 962.396 157.605 C 956.776 156.841 951.106 156.457 945.426 156.457 C 932.375 156.457 920.746 159.203 910.539 164.687 C 900.406 170.172 892.386 177.742 886.488 187.395 C 880.516 197.117 877.53 208.125 877.531 220.418 L 877.531 393.957 L 822.238 393.957 Z" style="stroke:none;fill-rule:nonzero;fill-opacity:1"/>
  <path class="k" d="M 493.906 393.957 L 493.906 15.105 L 628.863 15.105 C 658.368 15.104 682.769 20.486 702.066 31.25 C 721.437 41.945 735.946 56.598 745.594 75.207 C 755.175 93.749 759.965 114.618 759.964 137.813 C 759.964 161.078 755.14 181.98 745.492 200.52 C 735.772 219.133 721.228 233.821 701.859 244.582 C 682.422 255.347 658.019 260.73 628.652 260.73 L 535.871 260.73 L 535.871 212.293 L 623.551 212.293 C 642.156 212.293 657.254 209.064 668.847 202.605 C 680.44 196.146 688.946 187.292 694.363 176.043 C 699.777 164.86 702.484 152.116 702.484 137.813 C 702.484 123.506 699.777 110.798 694.363 99.688 C 688.945 88.578 680.406 79.859 668.746 73.543 C 657.081 67.293 641.774 64.168 622.824 64.168 L 551.074 64.168 L 551.074 393.957 L 493.906 393.957 Z" style="stroke:none;fill-rule:nonzero;fill-opacity:1"/>
</svg>