<svg xmlns="http://www.w3.org/2000/svg" width="2042" height="500" viewBox="0 0 2041 500">
  <path d="m2036.105 179.168-50.19 8.957q-3.124-9.687-9.895-18.332c-4.442-5.836-10.516-10.59-18.223-14.273q-11.454-5.52-28.637-5.52-23.426 0-39.152 10.418c-10.485 6.941-15.723 15.902-15.723 26.875q-.001 14.27 10.516 23.02c7.012 5.765 18.363 10.484 34.05 14.167l45.09 10.415q39.258 9.062 58.418 27.917 19.266 18.856 19.266 48.958 0 25.52-14.684 45.418-14.684 19.896-40.921 31.144-26.139 11.356-60.504 11.356-47.69 0-77.891-20.418-30.092-20.52-36.965-58.227l53.418-8.125q4.999 20.935 20.516 31.562 15.619 10.624 40.508 10.625 27.177 0 43.421-11.355 16.348-11.46 16.348-27.918c0-8.816-3.297-16.25-9.89-22.289q-9.891-9.064-30.305-13.75l-48.004-10.523q-39.781-9.062-58.73-28.852-18.955-19.793-18.954-50.106.001-25.207 14.059-44.062t38.84-29.48q24.784-10.624 56.754-10.625 46.026 0 72.476 19.898 26.45 19.895 34.988 53.125" style="stroke:none;fill-rule:nonzero;fill:#1d1d1f;fill-opacity:1"/>
  <path d="M1563.239 500.418q-12.391 0-22.492-1.875c-6.8-1.32-11.871-2.711-15.203-4.168l13.328-45.312c10.137 2.707 19.125 3.89 26.973 3.542 7.914-.418 14.926-3.402 21.035-8.96q9.163-8.333 16.14-27.188l6.872-18.852-103.926-287.812h59.148l71.957 220.52h2.914l71.957-220.52h59.356L1654.25 431.875q-8.12 22.19-20.723 37.605-12.597 15.417-29.882 23.227-17.391 7.71-40.407 7.711" style="stroke:none;fill-rule:nonzero;fill:#1d1d1f;fill-opacity:1"/>
  <path d="m1462.126 179.168-50.086 8.957q-3.122-9.687-9.894-18.332c-4.512-5.836-10.586-10.59-18.223-14.273q-11.454-5.52-28.637-5.52-23.53 0-39.258 10.418c-10.414 6.941-15.617 15.902-15.617 26.875q-.001 14.27 10.516 23.02c7.012 5.765 18.328 10.484 33.949 14.167l45.191 10.415q39.153 9.062 58.418 27.917 19.16 18.856 19.16 48.958 0 25.52-14.68 45.418c-9.788 13.265-23.398 23.644-40.82 31.144q-26.139 11.356-60.605 11.356-47.695 0-77.789-20.418-30.198-20.52-36.965-58.227l53.418-8.125q4.999 20.935 20.516 31.562 15.513 10.624 40.508 10.625 27.177 0 43.421-11.355 16.245-11.46 16.247-27.918c0-8.816-3.297-16.25-9.895-22.289q-9.89-9.064-30.2-13.75l-48.109-10.523q-39.675-9.062-58.625-28.852-18.954-19.793-18.953-50.106.001-25.207 14.059-44.062t38.738-29.48c16.524-7.082 35.473-10.625 56.856-10.625q46.026 0 72.476 19.898 26.45 19.895 34.883 53.125" style="stroke:none;fill-rule:nonzero;fill:#1d1d1f;fill-opacity:1"/>
  <path d="M1047.575 355.832q23.016 0 39.363-9.062 16.35-9.06 24.887-23.75 8.644-14.687 8.645-31.563v-36.562q-2.919 2.917-11.352 5.417-8.438 2.501-19.16 4.27a660 660 0 0 1-20.93 3.125q-10.102 1.354-16.976 2.293c-10.692 1.39-20.442 3.68-29.262 6.875q-13.223 4.791-21.137 13.75-7.81 8.96-7.808 23.75-.001 20.52 15.097 31.043 15.203 10.413 38.633 10.414m-11.977 44.375q-26.969 0-48.835-10.102-21.767-10.001-34.469-29.273c-8.469-12.848-12.703-28.574-12.703-47.187q.001-24.06 9.265-39.582 9.27-15.523 24.993-24.583 15.725-9.062 35.093-13.648a342 342 0 0 1 39.57-7.082q25.514-2.919 41.446-4.895 15.933-1.979 23.117-6.355 7.184-4.477 7.184-14.48v-1.25q0-24.27-13.535-37.602-13.642-13.23-40.403-13.23-27.908 0-43.945 12.292-16.036 12.289-22.078 27.29l-51.961-11.875q9.269-25.936 27.074-41.875c11.871-10.692 25.582-18.473 41.133-23.333q23.324-7.29 49.047-7.292 16.974 0 36.133 3.96 19.054 3.957 35.824 14.582 16.765 10.524 27.488 30 10.728 19.478 10.727 50.625v188.645h-54.043v-38.852h-2.188c-3.543 7.153-8.886 14.165-16.039 21.04q-10.723 10.418-27.594 17.187c-11.246 4.586-24.68 6.875-40.3 6.875" style="display:inline;fill:#1d1d1f;fill-opacity:1;fill-rule:nonzero;stroke:none;opacity:1"/>
  <path d="M900.958 109.793 797.969 393.957H738.82L635.625 109.793h59.355l71.957 218.645h2.915l71.75-218.645z" style="stroke:none;fill-rule:nonzero;fill:#1d1d1f;fill-opacity:1"/>
  <path d="M556.378 66.043q-14.474-.001-24.676-9.793-10.312-9.687-10.312-23.125 0-13.752 10.312-23.437Q541.904 0 556.38 0q14.373 0 24.68 9.688 10.207 9.685 10.207 23.437 0 13.438-10.207 23.125-10.307 9.792-24.68 9.793" style="stroke:none;fill-rule:nonzero;fill:#1d1d1f;fill-opacity:1"/>
  <path d="M528.472 393.957V109.793h55.192v284.164z" style="stroke:none;fill-rule:nonzero;fill:#1d1d1f;fill-opacity:1"/>
  <path d="M328.332 393.957V109.793h53.523V155h2.915c5.207-15.277 14.37-27.328 27.492-36.145q19.68-13.23 44.566-13.23c3.473 0 7.602.105 12.395.313q7.078.416 11.14.937v52.918q-3.334-.939-11.87-2.188a126 126 0 0 0-16.973-1.148c-13.051 0-24.68 2.746-34.887 8.23-10.133 5.485-18.153 13.055-24.051 22.708q-8.958 14.583-8.957 33.023v173.539z" style="stroke:none;fill-rule:nonzero;fill:#1d1d1f;fill-opacity:1"/>
  <path d="M0 393.957V15.105h134.957q44.257-.001 73.203 16.145 29.056 16.043 43.528 43.957 14.371 27.813 14.37 62.606 0 34.897-14.472 62.707-14.58 27.92-43.633 44.062-29.156 16.148-73.207 16.148H41.965v-48.437h87.68q27.907 0 45.296-9.688 17.39-9.689 25.516-26.562 8.121-16.775 8.121-38.23 0-21.46-8.121-38.125c-5.418-11.11-13.957-19.829-25.617-26.145q-17.497-9.375-45.922-9.375h-71.75v329.789z" style="stroke:none;fill-rule:nonzero;fill:#1d1d1f;fill-opacity:1"/>
</svg>