<svg xmlns="http://www.w3.org/2000/svg" height="64" width="64" version="1.1" viewBox="0 0 64 64">
  <path d="M 32 4 A 28 28 0 0 1 59.17 25.23" stroke="#34495E" stroke-width="8" stroke-linecap="round" fill="none"/>
  <path d="M 32 4 A 28 28 0 0 1 59.17 25.23" stroke="#95A5A6" stroke-width="8" stroke-linecap="round" fill="none" transform="rotate(180 32 32)"/>

  <path d="M 32 4 A 28 28 0 0 1 57.17 19.73" stroke="#5D707E" stroke-width="8" stroke-linecap="round" fill="none" transform="rotate(96 32 32)"/>
  <path d="M 32 4 A 28 28 0 0 1 57.17 19.73" stroke="#B5A88E" stroke-width="8" stroke-linecap="round" fill="none" transform="rotate(276 32 32)"/>

  <path d="M 32 14 A 18 18 0 0 1 41 47.59" stroke="#F5E7B2" stroke-width="6" stroke-linecap="round" fill="none" transform="rotate(40 32 32)"/>
  <path d="M 32 14 A 18 18 0 0 1 41 47.59" stroke="#D6D6C2" stroke-width="6" stroke-linecap="round" fill="none" transform="rotate(220 32 32)"/>

  <circle cx="32" cy="32" r="12" fill="#ffe57f"/>
</svg>

