<svg xmlns="http://www.w3.org/2000/svg" height="1024" width="1024" version="1.1" viewBox="0 0 1024 1024">
  <path d="M 512 24 A 488 488 0 0 1 838.54 149.35" stroke="#0C1014" stroke-width="48" stroke-linecap="round" fill="none"/>
  <path d="M 512 24 A 488 488 0 0 1 838.54 149.35" stroke="#5D707E" stroke-width="48" stroke-linecap="round" fill="none" transform="rotate(90 512 512)"/>
  <path d="M 512 24 A 488 488 0 0 1 838.54 149.35" stroke="#0C1014" stroke-width="48" stroke-linecap="round" fill="none" transform="rotate(180 512 512)"/>
  <path d="M 512 24 A 488 488 0 0 1 838.54 149.35" stroke="#5D707E" stroke-width="48" stroke-linecap="round" fill="none" transform="rotate(270 512 512)"/>

  <path d="M 512 24 A 488 488 0 0 1 741.1 81.12" stroke="#34495E" stroke-width="48" stroke-linecap="round" fill="none" transform="rotate(52 512 512)"/>
  <path d="M 512 24 A 488 488 0 0 1 741.1 81.12" stroke="#95A5A6" stroke-width="48" stroke-linecap="round" fill="none" transform="rotate(142 512 512)"/>
  <path d="M 512 24 A 488 488 0 0 1 741.1 81.12" stroke="#34495E" stroke-width="48" stroke-linecap="round" fill="none" transform="rotate(232 512 512)"/>
  <path d="M 512 24 A 488 488 0 0 1 741.1 81.12" stroke="#95A5A6" stroke-width="48" stroke-linecap="round" fill="none" transform="rotate(322 512 512)"/>

  <path d="M 512 120 A 392 392 0 0 1 580.07 898.04" stroke="#B5A88E" stroke-width="40" stroke-linecap="round" fill="none" transform="rotate(30 512 512)"/>
  <path d="M 512 120 A 392 392 0 0 1 580.07 898.04" stroke="#D6D6C2" stroke-width="40" stroke-linecap="round" fill="none" transform="rotate(210 512 512)"/>

  <path d="M 512 194 A 318 318 0 1 1 456.78 198.83" stroke="#F5E7B2" stroke-width="32" stroke-linecap="round" fill="none" transform="rotate(280 512 512)"/>

  <circle cx="512" cy="512" r="258" fill="none" stroke="#FFC300" stroke-width="24"/>
  <circle cx="512" cy="512" r="214" fill="none" stroke="#E67E22" stroke-width="16"/>
  <circle cx="512" cy="512" r="196" fill="#FFE57F"/>

  <line x1="600" y1="420" x2="540" y2="500" stroke="white" stroke-width="4" />
  <line x1="600" y1="420" x2="510" y2="360" stroke="white" stroke-width="4" />
  <line x1="520" y1="600" x2="630" y2="580" stroke="white" stroke-width="4" />
  <line x1="520" y1="600" x2="540" y2="500" stroke="white" stroke-width="4" />
  <line x1="520" y1="600" x2="450" y2="650" stroke="white" stroke-width="4" />
  <line x1="520" y1="600" x2="410" y2="550" stroke="white" stroke-width="4" />
  <line x1="430" y1="460" x2="510" y2="360" stroke="white" stroke-width="4" />
  <line x1="430" y1="460" x2="410" y2="550" stroke="white" stroke-width="4" />
  <line x1="430" y1="460" x2="540" y2="500" stroke="white" stroke-width="4" />
  <line x1="430" y1="460" x2="380" y2="400" stroke="white" stroke-width="4" />
  <line x1="630" y1="580" x2="540" y2="500" stroke="white" stroke-width="4" />
  <line x1="540" y1="500" x2="410" y2="550" stroke="white" stroke-width="4" />
  <line x1="540" y1="500" x2="510" y2="360" stroke="white" stroke-width="4" />

  <line x1="600" y1="420" x2="610" y2="343" stroke="white" stroke-width="4" />
  <line x1="600" y1="420" x2="681" y2="414" stroke="white" stroke-width="4" />
  <line x1="600" y1="420" x2="707" y2="512" stroke="white" stroke-width="4" />
  <line x1="630" y1="580" x2="704" y2="546" stroke="white" stroke-width="4" />
  <line x1="630" y1="580" x2="637" y2="661" stroke="white" stroke-width="4" />
  <line x1="520" y1="600" x2="624" y2="672" stroke="white" stroke-width="4" />
  <line x1="450" y1="650" x2="478" y2="704" stroke="white" stroke-width="4" />
  <line x1="450" y1="650" x2="352" y2="624" stroke="white" stroke-width="4" />
  <line x1="410" y1="550" x2="343" y2="610" stroke="white" stroke-width="4" />
  <line x1="410" y1="550" x2="320" y2="478" stroke="white" stroke-width="4" />
  <line x1="430" y1="460" x2="324" y2="462" stroke="white" stroke-width="4" />
  <line x1="380" y1="400" x2="335" y2="430" stroke="white" stroke-width="4" />
  <line x1="380" y1="400" x2="430" y2="335" stroke="white" stroke-width="4" />
  <line x1="510" y1="360" x2="462" y2="324" stroke="white" stroke-width="4" />
  <line x1="510" y1="360" x2="594" y2="335" stroke="white" stroke-width="4" />

  <circle cx="600" cy="420" r="14" fill="white"/>
  <circle cx="520" cy="600" r="14" fill="white"/>
  <circle cx="430" cy="460" r="14" fill="white"/>

  <circle cx="630" cy="580" r="10" fill="white"/>
  <circle cx="410" cy="550" r="10" fill="white"/>
  <circle cx="510" cy="360" r="10" fill="white"/>
  <circle cx="540" cy="500" r="10" fill="white"/>
  <circle cx="450" cy="650" r="10" fill="white"/>
  <circle cx="380" cy="400" r="10" fill="white"/>
</svg>