<svg xmlns="http://www.w3.org/2000/svg" height="256" width="256" version="1.1" viewBox="0 0 256 256">
  <path d="M 128 12 A 116 116 0 0 1 196.18 34.15" stroke="#34495E" stroke-width="20" stroke-linecap="round" fill="none"/>
  <path d="M 128 12 A 116 116 0 0 1 196.18 34.15" stroke="#95A5A6" stroke-width="20" stroke-linecap="round" fill="none" transform="rotate(90 128 128)"/>
  <path d="M 128 12 A 116 116 0 0 1 196.18 34.15" stroke="#34495E" stroke-width="20" stroke-linecap="round" fill="none" transform="rotate(180 128 128)"/>
  <path d="M 128 12 A 116 116 0 0 1 196.18 34.15" stroke="#95A5A6" stroke-width="20" stroke-linecap="round" fill="none" transform="rotate(270 128 128)"/>

  <path d="M 128 12 A 116 116 0 0 1 171.45 20.45" stroke="#5D707E" stroke-width="20" stroke-linecap="round" fill="none" transform="rotate(52 128 128)"/>
  <path d="M 128 12 A 116 116 0 0 1 171.45 20.45" stroke="#D6D6C2" stroke-width="20" stroke-linecap="round" fill="none" transform="rotate(142 128 128)"/>
  <path d="M 128 12 A 116 116 0 0 1 171.45 20.45" stroke="#5D707E" stroke-width="20" stroke-linecap="round" fill="none" transform="rotate(232 128 128)"/>
  <path d="M 128 12 A 116 116 0 0 1 171.45 20.45" stroke="#D6D6C2" stroke-width="20" stroke-linecap="round" fill="none" transform="rotate(322 128 128)"/>

  <path d="M 128 40 A 88 88 0 0 1 152.26 212.59" stroke="#FFC300" stroke-width="16" stroke-linecap="round" fill="none" transform="rotate(30 128 128)"/>
  <path d="M 128 40 A 88 88 0 0 1 152.26 212.59" stroke="#F5E7B2" stroke-width="16" stroke-linecap="round" fill="none" transform="rotate(210 128 128)"/>

  <circle cx="128" cy="128" r="70" fill="#ffe57f"/>

 <line stroke="white" stroke-width="1.5" x1="160" y1="105" x2="135" y2="125"/>
 <line stroke="white" stroke-width="1.5" x1="160" y1="105" x2="128" y2="84"/>
 <line stroke="white" stroke-width="1.5" x1="135" y1="160" x2="168" y2="145"/>
 <line stroke="white" stroke-width="1.5" x1="135" y1="160" x2="135" y2="125"/>
 <line stroke="white" stroke-width="1.5" x1="135" y1="160" x2="113" y2="176"/>
 <line stroke="white" stroke-width="1.5" x1="135" y1="160" x2="83" y2="138"/>
 <line stroke="white" stroke-width="1.5" x1="108" y1="115" x2="128" y2="84"/>
 <line stroke="white" stroke-width="1.5" x1="108" y1="115" x2="83" y2="138"/>
 <line stroke="white" stroke-width="1.5" x1="108" y1="115" x2="135" y2="125"/>
 <line stroke="white" stroke-width="1.5" x1="108" y1="115" x2="88" y2="88"/>
 <line stroke="white" stroke-width="1.5" x1="168" y1="145" x2="135" y2="125"/>
 <line stroke="white" stroke-width="1.5" x1="135" y1="125" x2="83" y2="138"/>
 <line stroke="white" stroke-width="1.5" x1="135" y1="125" x2="128" y2="84"/>
 
  <line stroke="white" stroke-width="1.5" stroke-linecap="round" x1="160" y1="105" x2="162.5" y2="68.24"/>
  <line stroke="white" stroke-width="1.5" stroke-linecap="round" x1="160" y1="105" x2="187.76" y2="93.5"/>
  <line stroke="white" stroke-width="1.5" stroke-linecap="round" x1="160" y1="105" x2="197" y2="128"/>
  <line stroke="white" stroke-width="1.5" stroke-linecap="round" x1="168" y1="145" x2="195.95" y2="139.98"/>
  <line stroke="white" stroke-width="1.5" stroke-linecap="round" x1="168" y1="145" x2="172.35" y2="180.86"/>
  <line stroke="white" stroke-width="1.5" stroke-linecap="round" x1="135" y1="160" x2="167.58" y2="184.52"/>
  <line stroke="white" stroke-width="1.5" stroke-linecap="round" x1="113" y1="176" x2="116.02" y2="195.95"/>
  <line stroke="white" stroke-width="1.5" stroke-linecap="round" x1="113" y1="176" x2="71.48" y2="167.58"/>
  <line stroke="white" stroke-width="1.5" stroke-linecap="round" x1="83" y1="138" x2="68.24" y2="162.5"/>
  <line stroke="white" stroke-width="1.5" stroke-linecap="round" x1="83" y1="138" x2="60.05" y2="116.02"/>
  <line stroke="white" stroke-width="1.5" stroke-linecap="round" x1="108" y1="115" x2="61.35" y2="110.14"/>
  <line stroke="white" stroke-width="1.5" stroke-linecap="round" x1="88" y1="88" x2="65.46" y2="98.84"/>
  <line stroke="white" stroke-width="1.5" stroke-linecap="round" x1="88" y1="88" x2="98.84" y2="65.46"/>
  <line stroke="white" stroke-width="1.5" stroke-linecap="round" x1="128" y1="84" x2="110.14" y2="61.35"/>
  <line stroke="white" stroke-width="1.5" stroke-linecap="round" x1="128" y1="84" x2="157.16" y2="65.46"/>

  <circle r="5" fill="white" cx="160" cy="105"/>
  <circle r="5" fill="white" cx="135" cy="160"/>
  <circle r="5" fill="white" cx="108" cy="115"/>
  <circle r="4" fill="white" cx="168" cy="145"/>
  <circle r="4" fill="white" cx="83" cy="138"/>
  <circle r="4" fill="white" cx="128" cy="84"/>
  <circle r="4" fill="white" cx="135" cy="125"/>
  <circle r="4" fill="white" cx="113" cy="176"/>
  <circle r="4" fill="white" cx="88" cy="88"/>
</svg>